<?xml version="1.0" encoding="UTF-8" standalone="no"?>
<!-- Created with Inkscape (http://www.inkscape.org/) -->

<svg
   xmlns:dc="http://purl.org/dc/elements/1.1/"
   xmlns:cc="http://creativecommons.org/ns#"
   xmlns:rdf="http://www.w3.org/1999/02/22-rdf-syntax-ns#"
   xmlns:svg="http://www.w3.org/2000/svg"
   xmlns="http://www.w3.org/2000/svg"
   xmlns:sodipodi="http://sodipodi.sourceforge.net/DTD/sodipodi-0.dtd"
   xmlns:inkscape="http://www.inkscape.org/namespaces/inkscape"
   width="462.84787mm"
   height="182.11987mm"
   viewBox="0 0 462.84787 182.11989"
   version="1.1"
   id="svg8"
   inkscape:version="0.92.1 r15371"
   sodipodi:docname="logo-5.svg">
  <defs
     id="defs2" />
  <sodipodi:namedview
     id="base"
     pagecolor="#ffffff"
     bordercolor="#666666"
     borderopacity="1.0"
     inkscape:pageopacity="0.0"
     inkscape:pageshadow="2"
     inkscape:zoom="0.35729064"
     inkscape:cx="1083.3295"
     inkscape:cy="145.85948"
     inkscape:document-units="mm"
     inkscape:current-layer="g5014"
     showgrid="false"
     inkscape:window-width="1920"
     inkscape:window-height="1017"
     inkscape:window-x="-8"
     inkscape:window-y="-8"
     inkscape:window-maximized="1" />
  <metadata
     id="metadata5">
    <rdf:RDF>
      <cc:Work
         rdf:about="">
        <dc:format>image/svg+xml</dc:format>
        <dc:type
           rdf:resource="http://purl.org/dc/dcmitype/StillImage" />
        <dc:title />
      </cc:Work>
    </rdf:RDF>
  </metadata>
  <g
     inkscape:label="Capa 1"
     inkscape:groupmode="layer"
     id="layer1"
     transform="translate(397.61702,225.84588)"
     style="display:inline">
    <g
       id="g5014">
      <text
         xml:space="preserve"
         style="font-style:normal;font-variant:normal;font-weight:normal;font-stretch:normal;font-size:35.08413315px;line-height:1.25;font-family:'Vladimir Script';-inkscape-font-specification:'Vladimir Script';letter-spacing:0px;word-spacing:0px;fill:#faebd7;fill-opacity:1;stroke:none;stroke-width:0.87710333;"
         x="-232.59622"
         y="-54.679569"
         id="text4575"
         transform="scale(1.0773383,0.92821355)"><tspan
           sodipodi:role="line"
           x="-232.59622"
           y="-54.679569"
           id="tspan4573"
           style="stroke-width:0.87710333;fill:#faebd7;fill-opacity:1;stroke:none;"><tspan
             x="-232.59622"
             y="-54.679569"
             id="tspan4571"
             style="stroke-width:0.87710333;fill:#faebd7;fill-opacity:1;stroke:none;"><tspan
               style="font-style:normal;font-variant:normal;font-weight:normal;font-stretch:normal;font-family:'Mongolian Baiti';-inkscape-font-specification:'Mongolian Baiti';fill:#faebd7;fill-opacity:1;stroke:none;"
               id="tspan271">Alojamientos rurales</tspan></tspan></tspan></text>
      <text
         xml:space="preserve"
         style="font-style:normal;font-variant:normal;font-weight:normal;font-stretch:normal;font-size:91.14279938px;line-height:1.25;font-family:'Vladimir Script';-inkscape-font-specification:'Vladimir Script';letter-spacing:0px;word-spacing:0px;fill:#faebd7;fill-opacity:1;stroke:none;stroke-width:2.27856994;paint-order:stroke fill markers;"
         x="-275.38455"
         y="-104.13802"
         id="text4569"
         transform="matrix(1.1133269,0.0022358,-0.0018357,0.8982051,0,0)"><tspan
           sodipodi:role="line"
           x="-275.38455"
           y="-104.13802"
           id="tspan4567"
           style="font-style:normal;font-variant:normal;font-weight:normal;font-stretch:normal;font-family:'Mongolian Baiti';-inkscape-font-specification:'Mongolian Baiti';stroke-width:2.27856994;fill:#faebd7;fill-opacity:1;stroke:none;"><tspan
             x="-275.38455"
             y="-104.13802"
             style="font-style:normal;font-variant:normal;font-weight:normal;font-stretch:normal;font-family:'Mongolian Baiti';-inkscape-font-specification:'Mongolian Baiti';letter-spacing:0.62508094px;stroke-width:2.27856994;paint-order:stroke fill markers;fill:#faebd7;fill-opacity:1;stroke:none;"
             id="tspan4563"
             dx="0 0 0 0 0 0">uetor</tspan></tspan></text>
      <g
         transform="matrix(0.13204704,0,0,0.24761463,-80.344363,-194.0414)"
         id="g4903"
         style="fill:#faebd7;fill-opacity:1;stroke:none">
        <g
           id="g4794"
           style="fill:#faebd7;fill-opacity:1;stroke:none">
          <g
             transform="matrix(1.4325668,0,0,0.84384745,-52.874989,-32.515458)"
             id="g4792"
             style="fill:#faebd7;fill-opacity:1;stroke:none">
            <path
               inkscape:connector-curvature="0"
               d="m 550.669,118.08 c -0.502,-0.569 -1.184,-1.181 -1.988,-1.867 -0.83,-0.652 -1.791,-1.365 -2.904,-2.047 -2.215,-1.377 -4.979,-2.699 -8.033,-3.843 -3.057,-1.138 -6.4,-2.118 -9.779,-2.928 -6.762,-1.634 -13.652,-2.586 -18.84,-3.127 -0.766,-0.08 -1.479,-0.15 -2.164,-0.211 11.355,-7.329 18.891,-18.427 16.781,-35.123 -0.109,45.744 -65.479,42.087 -104.373,40.472 38.676,-15.765 77.047,-32.463 103.266,-62.858 -11.452,10.852 -24.964,19.187 -39.613,26.142 0.018,-0.067 0.039,-0.123 0.055,-0.189 0.264,-0.897 0.41,-1.882 0.627,-2.871 0.133,-1.013 0.324,-2.041 0.389,-3.106 0.07,-1.062 0.16,-2.129 0.111,-3.21 0.014,-1.071 -0.07,-2.139 -0.197,-3.182 -0.066,-1.043 -0.309,-2.053 -0.498,-3.023 -0.152,-0.976 -0.486,-1.882 -0.744,-2.739 -0.232,-0.866 -0.557,-1.649 -0.881,-2.362 -0.32,-0.71 -0.561,-1.377 -0.865,-1.925 -0.311,-0.544 -0.578,-1.019 -0.803,-1.411 -0.439,-0.774 -0.695,-1.215 -0.695,-1.215 0,0 0.156,0.484 0.436,1.334 0.135,0.419 0.303,0.93 0.492,1.515 0.188,0.584 0.285,1.279 0.447,2.007 0.168,0.731 0.318,1.524 0.367,2.381 0.07,0.851 0.211,1.729 0.162,2.659 -0.01,0.924 0.021,1.863 -0.117,2.818 -0.076,0.955 -0.195,1.913 -0.41,2.858 -0.146,0.948 -0.424,1.878 -0.676,2.785 -0.242,0.909 -0.602,1.771 -0.891,2.61 -0.369,0.82 -0.656,1.625 -1.045,2.347 -0.354,0.734 -0.711,1.411 -1.074,2.017 -0.699,1.224 -1.359,2.182 -1.83,2.812 -0.242,0.328 -0.416,0.548 -0.527,0.67 -0.066,0.08 -0.119,0.144 -0.152,0.184 -55.949,24.045 -125.504,31.438 -162.729,77.822 5.027,-14.912 12.746,-29.199 17.189,-45.472 0.105,-0.089 0.217,-0.174 0.311,-0.282 0.154,-0.168 0.285,-0.346 0.395,-0.532 l 0.025,-0.043 c 0,0 0.059,-0.098 0.166,-0.278 0.076,-0.144 0.223,-0.383 0.449,-0.722 0.434,-0.658 1.111,-1.604 2.025,-2.678 0.449,-0.544 0.965,-1.114 1.533,-1.695 0.545,-0.612 1.205,-1.154 1.852,-1.781 0.691,-0.554 1.383,-1.187 2.154,-1.723 0.768,-0.545 1.545,-1.12 2.389,-1.582 0.818,-0.523 1.682,-0.961 2.551,-1.355 0.854,-0.453 1.746,-0.744 2.613,-1.065 0.855,-0.358 1.73,-0.526 2.555,-0.75 0.822,-0.245 1.619,-0.371 2.365,-0.462 0.744,-0.092 1.428,-0.239 2.041,-0.26 0.615,-0.021 1.15,-0.037 1.59,-0.052 0.891,-0.027 1.402,-0.043 1.402,-0.043 0,0 -0.502,-0.085 -1.381,-0.239 -0.443,-0.076 -0.98,-0.171 -1.6,-0.275 -0.621,-0.104 -1.328,-0.101 -2.105,-0.162 -0.779,-0.064 -1.625,-0.101 -2.521,-0.027 -0.896,0.052 -1.859,0.046 -2.83,0.229 -0.977,0.15 -2.008,0.266 -3.012,0.557 -1.025,0.233 -2.057,0.517 -3.059,0.894 -1.031,0.321 -2.008,0.765 -2.98,1.194 -0.98,0.419 -1.883,0.951 -2.789,1.419 -0.623,0.392 -1.242,0.759 -1.832,1.135 2.539,-15.64 1.352,-33.363 -8.049,-55.147 8.312,25.23 6.672,44.349 1.08,60.998 -0.602,0.683 -0.877,1.54 -0.834,2.384 -7.627,21.028 -21.25,38.305 -28.375,59.404 -0.15,-0.272 -0.295,-0.532 -0.457,-0.817 -1.182,-1.989 -2.609,-4.271 -4.389,-6.545 -0.443,-0.566 -0.893,-1.144 -1.35,-1.729 -0.494,-0.554 -0.996,-1.114 -1.504,-1.68 -0.967,-1.157 -2.16,-2.169 -3.26,-3.231 -1.156,-1.013 -2.402,-1.937 -3.614,-2.827 -1.328,-0.75 -2.512,-1.652 -3.853,-2.197 -1.34,-0.532 -2.537,-1.236 -3.843,-1.484 -0.63,-0.165 -1.246,-0.327 -1.839,-0.486 -0.294,-0.077 -0.584,-0.153 -0.869,-0.227 -0.294,-0.027 -0.584,-0.055 -0.866,-0.083 -1.12,-0.104 -2.145,-0.199 -3.057,-0.285 -0.912,0.031 -1.702,0.123 -2.347,0.162 -1.288,0.101 -2.022,0.159 -2.022,0.159 0,0 0.734,0.046 2.022,0.125 0.64,0.049 1.417,0.07 2.295,0.163 0.86,0.205 1.83,0.434 2.889,0.685 0.263,0.061 0.529,0.125 0.802,0.19 0.26,0.11 0.523,0.22 0.792,0.333 0.533,0.227 1.086,0.459 1.652,0.698 1.163,0.385 2.204,1.224 3.351,1.873 1.147,0.658 2.129,1.667 3.225,2.497 0.995,0.979 1.999,1.967 2.916,3.036 0.865,1.126 1.805,2.16 2.539,3.356 0.387,0.575 0.771,1.147 1.152,1.711 0.338,0.59 0.676,1.178 1.002,1.753 1.322,2.292 2.33,4.562 3.143,6.509 0.777,1.968 1.363,3.626 1.703,4.789 0.352,1.141 0.486,1.753 0.504,1.793 0.139,0.419 0.355,0.79 0.625,1.104 -0.004,0.013 -0.006,0.021 -0.01,0.034 -7.83,35.174 -0.172,80.82 -3.105,119.135 -7.871,-22.369 -24.71,-43.281 -32.813,-65.625 0.049,-0.912 -0.251,-1.839 -0.899,-2.573 -6.038,-17.98 -7.809,-38.624 1.166,-65.867 -10.153,23.52 -11.432,42.66 -8.69,59.545 -0.637,-0.41 -1.307,-0.805 -1.98,-1.227 -0.982,-0.505 -1.953,-1.077 -3.011,-1.533 -1.053,-0.462 -2.105,-0.942 -3.219,-1.288 -1.083,-0.41 -2.197,-0.713 -3.305,-0.967 -1.086,-0.312 -2.197,-0.44 -3.253,-0.603 -1.046,-0.202 -2.09,-0.193 -3.057,-0.248 -0.967,-0.08 -1.882,-0.04 -2.72,0.031 -0.839,0.067 -1.604,0.064 -2.274,0.174 -0.667,0.116 -1.249,0.214 -1.729,0.3 -0.945,0.165 -1.49,0.26 -1.49,0.26 0,0 0.551,0.018 1.511,0.049 0.478,0.015 1.056,0.034 1.72,0.055 0.661,0.024 1.402,0.18 2.204,0.281 0.801,0.098 1.665,0.236 2.552,0.499 0.891,0.239 1.833,0.422 2.76,0.811 0.933,0.349 1.9,0.661 2.821,1.15 0.939,0.428 1.87,0.899 2.754,1.466 0.912,0.499 1.753,1.123 2.58,1.708 0.833,0.578 1.579,1.264 2.326,1.86 0.694,0.676 1.408,1.264 1.998,1.925 0.615,0.627 1.172,1.239 1.659,1.83 0.988,1.157 1.72,2.182 2.188,2.892 0.245,0.368 0.404,0.625 0.486,0.781 0.116,0.196 0.178,0.303 0.178,0.303 l 0.027,0.046 c 0.119,0.202 0.263,0.395 0.425,0.575 0.104,0.113 0.22,0.205 0.336,0.303 4.798,17.57 13.131,32.996 18.559,49.098 -40.178,-50.08 -115.282,-58.061 -175.696,-84.025 -0.037,-0.046 -0.092,-0.113 -0.166,-0.199 -0.116,-0.131 -0.306,-0.367 -0.566,-0.722 -0.508,-0.679 -1.224,-1.717 -1.977,-3.039 -0.389,-0.655 -0.777,-1.386 -1.157,-2.179 -0.422,-0.777 -0.731,-1.649 -1.132,-2.534 -0.309,-0.906 -0.701,-1.839 -0.961,-2.821 -0.272,-0.979 -0.572,-1.983 -0.731,-3.008 -0.232,-1.022 -0.361,-2.057 -0.444,-3.088 -0.15,-1.034 -0.113,-2.047 -0.125,-3.044 -0.052,-1.004 0.098,-1.952 0.175,-2.871 0.052,-0.927 0.217,-1.781 0.397,-2.57 0.178,-0.786 0.282,-1.539 0.484,-2.169 0.205,-0.63 0.385,-1.181 0.532,-1.637 0.297,-0.915 0.468,-1.438 0.468,-1.438 0,0 -0.272,0.477 -0.75,1.312 -0.242,0.422 -0.532,0.937 -0.866,1.524 -0.333,0.594 -0.587,1.313 -0.937,2.078 -0.352,0.768 -0.701,1.613 -0.952,2.549 -0.275,0.927 -0.636,1.906 -0.802,2.959 -0.205,1.046 -0.465,2.136 -0.539,3.265 -0.138,1.126 -0.229,2.279 -0.211,3.436 -0.052,1.166 0.043,2.32 0.119,3.467 0.067,1.15 0.275,2.258 0.419,3.354 0.232,1.068 0.392,2.133 0.676,3.1 0.019,0.073 0.043,0.134 0.061,0.208 -15.814,-7.509 -30.407,-16.512 -42.77,-28.232 28.311,32.819 69.744,50.852 111.503,67.874 -41.999,1.744 -112.578,5.692 -112.7,-43.703 -2.277,18.029 5.857,30.012 18.118,37.925 -0.741,0.067 -1.512,0.141 -2.335,0.229 -5.6,0.584 -13.042,1.616 -20.343,3.378 -3.647,0.875 -7.258,1.931 -10.56,3.161 -3.299,1.236 -6.282,2.662 -8.675,4.149 -1.199,0.738 -2.24,1.506 -3.133,2.209 -0.872,0.741 -1.606,1.401 -2.148,2.017 -0.584,0.566 -0.939,1.108 -1.212,1.441 -0.266,0.343 -0.407,0.523 -0.407,0.523 0,0 0.162,-0.165 0.468,-0.471 0.312,-0.3 0.719,-0.783 1.362,-1.27 0.6,-0.532 1.398,-1.092 2.323,-1.701 0.952,-0.578 2.038,-1.193 3.28,-1.763 4.942,-2.341 12.102,-3.969 19.33,-4.771 7.23,-0.841 14.532,-0.958 19.981,-0.863 2.727,0.046 4.994,0.147 6.57,0.236 1.555,0.104 2.445,0.165 2.445,0.165 l 0.119,0.009 c 0.138,0.009 0.275,0.009 0.413,0 1.077,-0.058 2.004,-0.594 2.62,-1.38 11.349,4.837 24.37,7.319 35.716,8.467 27.004,2.748 54.532,4.391 79.419,9.915 -4.838,2.641 -10.937,6.239 -16.683,10.407 -3.042,2.2 -5.976,4.55 -8.562,6.943 -2.579,2.399 -4.792,4.853 -6.438,7.139 -0.829,1.138 -1.5,2.246 -2.056,3.237 -0.523,1.016 -0.952,1.909 -1.221,2.684 -0.324,0.747 -0.447,1.383 -0.572,1.795 -0.113,0.416 -0.174,0.641 -0.174,0.641 0,0 0.089,-0.215 0.254,-0.615 0.174,-0.395 0.367,-1 0.777,-1.696 0.352,-0.722 0.875,-1.539 1.5,-2.457 0.661,-0.896 1.432,-1.882 2.362,-2.876 3.678,-4.045 9.682,-8.277 16.059,-11.769 6.365,-3.531 13.076,-6.417 18.149,-8.406 2.537,-0.998 4.673,-1.766 6.163,-2.283 0.232,-0.077 0.416,-0.141 0.615,-0.208 13.69,3.807 26.399,9.07 37.494,16.778 30.419,21.129 46.531,52.959 47.935,97.899 -0.725,-0.621 -1.518,-1.283 -2.399,-1.992 -1.028,-0.809 -2.157,-1.662 -3.369,-2.537 -1.251,-0.828 -2.503,-1.775 -3.926,-2.588 -1.383,-0.867 -2.837,-1.711 -4.379,-2.471 -1.49,-0.834 -3.127,-1.471 -4.722,-2.156 -1.597,-0.676 -3.308,-1.113 -4.915,-1.662 -1.695,-0.314 -3.317,-0.768 -4.938,-0.928 -1.634,-0.064 -3.176,-0.375 -4.667,-0.207 -1.481,0.156 -2.883,0.092 -4.134,0.416 -1.242,0.297 -2.384,0.568 -3.394,0.811 -0.982,0.314 -1.79,0.74 -2.473,1.014 -1.346,0.58 -2.117,0.914 -2.117,0.914 0,0 0.808,-0.227 2.222,-0.623 0.707,-0.176 1.539,-0.484 2.53,-0.662 1.001,-0.102 2.13,-0.217 3.36,-0.342 1.218,-0.15 2.564,0.098 3.951,0.131 1.396,0.021 2.827,0.525 4.309,0.773 1.472,0.346 2.931,0.98 4.428,1.463 1.432,0.723 2.922,1.312 4.314,2.139 1.386,0.836 2.794,1.602 4.073,2.568 1.319,0.881 2.555,1.842 3.721,2.812 1.199,0.912 2.246,1.957 3.29,2.863 1.006,0.959 1.937,1.883 2.778,2.746 1.662,1.756 2.99,3.264 3.85,4.35 0.866,1.059 1.282,1.656 1.312,1.689 l 0.358,0.367 0.016,0.016 c 0.297,0.303 0.643,0.529 1.004,0.703 -0.007,0.529 0.012,1.039 0,1.57 -0.726,34.4 -3.786,70.809 2.736,100.545 -0.459,-0.008 -0.918,-0.021 -1.375,-0.027 -15.942,0.268 -31.9,0.637 -47.531,2.342 -15.646,1.371 -30.961,3.764 -45.662,6.658 -7.334,1.578 -14.562,2.965 -21.533,4.939 -7.001,1.744 -13.792,3.76 -20.352,5.854 -3.292,0.982 -6.496,2.143 -9.648,3.289 -3.146,1.145 -6.243,2.273 -9.287,3.381 -5.992,2.57 -11.818,4.838 -17.25,7.471 -10.869,5.24 -20.563,10.58 -28.654,16.139 -4.045,2.768 -7.858,5.254 -11.068,8.074 -3.253,2.73 -6.35,5 -8.81,7.543 -2.537,2.418 -4.765,4.584 -6.646,6.506 -1.781,2.051 -3.225,3.85 -4.418,5.266 -2.316,2.871 -3.55,4.404 -3.55,4.404 0,0 1.649,-1.08 4.737,-3.104 1.512,-1.006 3.378,-2.248 5.572,-3.709 2.341,-1.258 4.97,-2.748 7.871,-4.424 2.824,-1.775 6.328,-3.199 9.938,-4.957 1.852,-0.814 3.651,-1.83 5.689,-2.627 2.01,-0.816 4.094,-1.66 6.249,-2.535 4.229,-1.844 8.923,-3.426 13.819,-5.117 4.819,-1.832 10.159,-3.191 15.554,-4.875 5.444,-1.59 11.227,-2.965 17.124,-4.494 6.034,-1.199 12.108,-2.846 18.546,-3.926 3.195,-0.6 6.436,-1.207 9.716,-1.822 3.268,-0.643 6.643,-1.053 10.012,-1.6 6.735,-1.092 13.666,-2.01 20.71,-2.885 7.047,-0.846 14.248,-1.543 21.512,-2.277 3.647,-0.271 7.316,-0.545 11.004,-0.82 3.675,-0.363 7.39,-0.562 11.117,-0.758 14.893,-0.955 30.07,-1.246 45.233,-1.348 7.58,0.141 15.175,-0.027 22.716,0.355 3.773,0.158 7.541,0.271 11.301,0.357 3.752,0.205 7.492,0.408 11.219,0.609 7.463,0.34 14.816,1.092 22.127,1.57 3.645,0.299 7.246,0.752 10.836,1.113 3.582,0.406 7.172,0.637 10.68,1.156 7.043,0.889 13.977,1.785 20.713,2.881 3.369,0.547 6.744,0.957 10.012,1.604 3.279,0.613 6.521,1.221 9.715,1.816 6.439,1.08 12.514,2.738 18.551,3.93 5.898,1.533 11.68,2.916 17.127,4.498 5.396,1.684 10.734,3.051 15.553,4.881 4.896,1.691 9.588,3.279 13.82,5.121 2.15,0.877 4.234,1.725 6.248,2.543 2.037,0.797 3.84,1.809 5.688,2.627 3.602,1.76 7.127,3.199 9.906,4.943 2.869,1.66 5.49,3.137 7.83,4.395 2.219,1.484 4.107,2.748 5.637,3.773 3.088,2.025 4.734,3.105 4.734,3.105 0,0 -1.236,-1.529 -3.557,-4.4 -1.182,-1.414 -2.641,-3.154 -4.354,-5.201 -1.883,-1.922 -4.119,-4.1 -6.688,-6.537 -2.506,-2.576 -5.58,-4.824 -8.84,-7.557 -3.213,-2.818 -7.021,-5.307 -11.07,-8.072 -8.092,-5.555 -17.785,-10.891 -28.654,-16.127 -5.428,-2.641 -11.258,-4.896 -17.25,-7.467 -3.043,-1.111 -6.141,-2.236 -9.283,-3.385 -3.152,-1.146 -6.355,-2.307 -9.648,-3.285 -6.555,-2.109 -13.35,-4.113 -20.348,-5.857 -6.971,-1.967 -14.193,-3.375 -21.531,-4.941 -14.693,-2.922 -30.016,-5.275 -45.658,-6.678 -7.322,-0.795 -14.721,-1.287 -22.15,-1.633 -18.6,-31.203 -13.033,-79.01 -12.363,-123.588 9.438,-21.375 10.049,-48.955 9.303,-77.308 0.502,-0.515 0.982,-1.053 1.49,-1.552 1.184,-0.894 2.246,-1.985 3.484,-2.695 1.24,-0.701 2.359,-1.604 3.617,-2.02 0.613,-0.257 1.209,-0.511 1.785,-0.752 0.289,-0.123 0.574,-0.245 0.855,-0.361 0.295,-0.07 0.582,-0.138 0.867,-0.205 1.145,-0.272 2.189,-0.52 3.121,-0.74 0.947,-0.101 1.787,-0.123 2.479,-0.175 1.393,-0.085 2.184,-0.134 2.184,-0.134 0,0 -0.791,-0.064 -2.182,-0.174 -0.697,-0.046 -1.551,-0.144 -2.533,-0.178 -0.982,0.092 -2.09,0.193 -3.299,0.306 -0.307,0.03 -0.617,0.058 -0.936,0.088 -0.311,0.08 -0.621,0.163 -0.938,0.245 -0.639,0.168 -1.303,0.343 -1.982,0.523 -1.41,0.27 -2.701,1.028 -4.148,1.604 -1.385,0.563 -2.617,1.469 -3.969,2.255 -0.301,-9.933 -0.707,-19.92 -0.916,-29.731 -0.01,-0.493 0.006,-0.964 0,-1.454 0.336,-0.162 0.654,-0.37 0.93,-0.652 l 0.016,-0.015 0.33,-0.34 c 0.031,-0.03 0.414,-0.581 1.219,-1.563 0.799,-1.004 2.029,-2.402 3.564,-4.03 0.781,-0.802 1.645,-1.656 2.574,-2.543 0.963,-0.838 1.934,-1.809 3.045,-2.653 1.08,-0.896 2.225,-1.787 3.445,-2.604 1.182,-0.894 2.484,-1.604 3.77,-2.377 1.289,-0.765 2.672,-1.313 3.996,-1.98 1.387,-0.447 2.738,-1.034 4.102,-1.355 1.369,-0.232 2.697,-0.701 3.99,-0.719 1.285,-0.03 2.529,-0.263 3.656,-0.122 1.141,0.116 2.184,0.223 3.111,0.315 0.918,0.165 1.686,0.447 2.344,0.612 1.307,0.367 2.057,0.579 2.057,0.579 0,0 -0.713,-0.309 -1.961,-0.848 -0.633,-0.251 -1.383,-0.646 -2.293,-0.937 -0.936,-0.223 -1.988,-0.477 -3.143,-0.752 -1.158,-0.3 -2.457,-0.242 -3.828,-0.386 -1.379,-0.156 -2.809,0.131 -4.322,0.193 -1.5,0.15 -3.002,0.566 -4.572,0.86 -1.488,0.508 -3.072,0.912 -4.553,1.539 -1.477,0.633 -2.994,1.224 -4.373,1.998 -1.43,0.701 -2.775,1.484 -4.059,2.286 -1.314,0.756 -2.475,1.631 -3.635,2.399 -1.119,0.811 -2.166,1.601 -3.117,2.347 -0.814,0.658 -1.549,1.273 -2.223,1.845 1.301,-41.619 16.221,-71.096 44.395,-90.665 10.275,-7.139 22.045,-12.01 34.725,-15.539 0.184,0.061 0.355,0.119 0.57,0.193 1.379,0.48 3.359,1.19 5.709,2.114 4.701,1.842 10.912,4.517 16.809,7.785 5.906,3.234 11.467,7.151 14.871,10.9 0.863,0.924 1.576,1.836 2.189,2.665 0.578,0.851 1.064,1.609 1.389,2.277 0.379,0.646 0.557,1.203 0.719,1.57 0.152,0.37 0.232,0.569 0.232,0.569 0,0 -0.055,-0.205 -0.162,-0.593 -0.115,-0.383 -0.229,-0.97 -0.529,-1.662 -0.248,-0.716 -0.643,-1.542 -1.129,-2.484 -0.518,-0.918 -1.135,-1.943 -1.906,-2.999 -1.523,-2.117 -3.574,-4.391 -5.965,-6.612 -2.393,-2.219 -5.113,-4.395 -7.932,-6.432 -5.324,-3.862 -10.969,-7.191 -15.449,-9.639 23.049,-5.113 48.541,-6.637 73.551,-9.183 10.508,-1.062 22.566,-3.36 33.078,-7.84 0.568,0.729 1.43,1.224 2.426,1.276 0.129,0.006 0.258,0.006 0.383,0 l 0.111,-0.009 c 0,0 0.822,-0.055 2.264,-0.15 1.459,-0.083 3.559,-0.178 6.084,-0.217 5.049,-0.086 11.811,0.021 18.506,0.802 6.693,0.74 13.324,2.249 17.9,4.416 1.152,0.526 2.158,1.095 3.037,1.631 0.859,0.566 1.596,1.083 2.15,1.576 0.598,0.453 0.973,0.9 1.262,1.178 0.281,0.285 0.434,0.438 0.434,0.438 0,0 -0.131,-0.168 -0.377,-0.486 -0.25,-0.298 -0.58,-0.8 -1.119,-1.326 z"
               id="path4686"
               style="fill:#faebd7;fill-opacity:1;stroke:none" />
            <path
               inkscape:connector-curvature="0"
               d="m 153.062,179.821 c -5.352,-4.437 -11.646,-7.197 -17.791,-10.331 -4.89,-2.494 -10,-5.71 -12.812,-10.615 1.242,6.065 3.476,12.632 7.518,17.405 5.805,6.854 13.804,11.034 20.667,16.643 4.565,3.73 8.366,8.767 10.854,14.122 2.219,-9.709 -0.657,-20.77 -8.436,-27.224 z"
               id="path4688"
               style="fill:#faebd7;fill-opacity:1;stroke:none" />
            <path
               inkscape:connector-curvature="0"
               d="m 148.503,193.542 c -8.29,-6.989 -19.29,-11.967 -23.461,-22.699 -0.502,4.786 -0.156,9.801 1.025,14.458 2.075,8.191 7.739,13.858 15.067,17.769 1.903,1.016 3.92,1.793 5.946,2.531 2.038,0.741 4.104,1.429 6.095,2.292 1.861,0.808 3.651,1.643 5.074,3.136 0.86,0.903 1.665,1.873 2.411,2.874 -0.003,-0.003 -1.756,-11.591 -12.157,-20.361 z"
               id="path4690"
               style="fill:#faebd7;fill-opacity:1;stroke:none" />
            <path
               inkscape:connector-curvature="0"
               d="m 356.804,90.013 c 6.734,1.49 13.348,3.36 20.299,3.338 10.107,-0.034 19.361,-6.744 23.822,-15.649 -5.32,2.549 -11.459,4.021 -17.355,3.997 -8.861,-0.037 -17.697,-1.897 -26.533,-0.297 -6.156,1.117 -12.057,4.761 -16.871,8.654 5.288,-1.992 11.276,-1.227 16.638,-0.043 z"
               id="path4692"
               style="fill:#faebd7;fill-opacity:1;stroke:none" />
            <path
               inkscape:connector-curvature="0"
               d="m 400.944,72.562 c -2.051,0.248 -3.963,-0.245 -5.912,-0.805 -2.088,-0.6 -4.115,-1.383 -6.16,-2.108 -2.029,-0.719 -4.082,-1.401 -6.197,-1.827 -8.139,-1.64 -16.117,-0.869 -22.926,4.134 -3.869,2.846 -7.328,6.497 -9.98,10.508 10.045,-5.631 21.701,-2.479 32.543,-2.604 13.605,-0.156 22.326,-7.983 22.326,-7.983 -1.219,0.296 -2.455,0.535 -3.694,0.685 z"
               id="path4694"
               style="fill:#faebd7;fill-opacity:1;stroke:none" />
            <path
               inkscape:connector-curvature="0"
               d="m 236.141,190.623 c -3.078,2.197 -6.79,3.803 -10.517,4.44 -5.6,0.955 -11.38,0.756 -16.784,2.742 -3.764,1.383 -7.087,4.336 -9.697,7.326 3.118,-1.845 6.986,-2.022 10.499,-1.867 4.416,0.199 8.797,0.649 13.186,-0.131 6.38,-1.139 11.481,-6.396 13.313,-12.51 z"
               id="path4696"
               style="fill:#faebd7;fill-opacity:1;stroke:none" />
            <path
               inkscape:connector-curvature="0"
               d="m 237.843,186.535 c -0.734,0.321 -1.487,0.606 -2.252,0.838 -1.267,0.383 -2.527,0.285 -3.822,0.144 -1.383,-0.15 -2.751,-0.419 -4.122,-0.652 -1.362,-0.229 -2.733,-0.435 -4.113,-0.471 -5.321,-0.138 -10.272,1.23 -14.018,5.141 -2.13,2.225 -3.911,4.912 -5.144,7.736 5.722,-4.664 13.427,-3.959 20.26,-5.236 8.569,-1.595 13.211,-7.5 13.211,-7.5 z"
               id="path4698"
               style="fill:#faebd7;fill-opacity:1;stroke:none" />
            <path
               inkscape:connector-curvature="0"
               d="m 238.837,159.573 c 3.724,0.636 7.438,2.243 10.517,4.44 -1.833,-6.114 -6.937,-11.371 -13.314,-12.509 -4.388,-0.78 -8.767,-0.331 -13.186,-0.132 -3.516,0.156 -7.381,-0.021 -10.499,-1.866 2.61,2.989 5.933,5.942 9.697,7.326 5.405,1.985 11.185,1.783 16.785,2.741 z"
               id="path4700"
               style="fill:#faebd7;fill-opacity:1;stroke:none" />
            <path
               inkscape:connector-curvature="0"
               d="m 244.979,167.116 c 1.292,-0.138 2.555,-0.239 3.822,0.144 0.765,0.232 1.521,0.517 2.252,0.838 0,0 -4.642,-5.906 -13.213,-7.506 -6.83,-1.273 -14.538,-0.572 -20.26,-5.236 1.233,2.828 3.014,5.514 5.144,7.736 3.749,3.911 8.7,5.278 14.018,5.141 1.383,-0.037 2.754,-0.239 4.112,-0.471 1.374,-0.227 2.742,-0.496 4.125,-0.646 z"
               id="path4702"
               style="fill:#faebd7;fill-opacity:1;stroke:none" />
            <path
               inkscape:connector-curvature="0"
               d="m 288.005,97.131 c 5.404,1.986 11.188,1.784 16.785,2.742 3.723,0.633 7.438,2.243 10.516,4.44 -1.832,-6.114 -6.936,-11.371 -13.312,-12.509 -4.389,-0.78 -8.771,-0.331 -13.186,-0.131 -3.518,0.156 -7.381,-0.021 -10.5,-1.867 2.613,2.989 5.933,5.942 9.697,7.325 z"
               id="path4704"
               style="fill:#faebd7;fill-opacity:1;stroke:none" />
            <path
               inkscape:connector-curvature="0"
               d="m 302.696,108.535 c 1.383,-0.037 2.754,-0.239 4.113,-0.471 1.371,-0.232 2.738,-0.502 4.121,-0.651 1.291,-0.138 2.555,-0.239 3.822,0.144 0.766,0.232 1.521,0.517 2.252,0.838 0,0 -4.643,-5.906 -13.213,-7.506 -6.83,-1.272 -14.539,-0.572 -20.26,-5.235 1.232,2.827 3.014,5.514 5.143,7.735 3.751,3.919 8.7,5.284 14.022,5.146 z"
               id="path4706"
               style="fill:#faebd7;fill-opacity:1;stroke:none" />
            <path
               inkscape:connector-curvature="0"
               d="m 279.41,200.225 c -2.491,-1.102 -5.159,-1.472 -7.812,-1.995 -2.111,-0.419 -4.382,-1.086 -5.967,-2.635 1.117,2.154 2.659,4.391 4.694,5.762 2.922,1.964 6.386,2.687 9.571,4.07 2.121,0.918 4.091,2.414 5.603,4.165 -0.199,-3.899 -2.467,-7.763 -6.089,-9.367 z"
               id="path4708"
               style="fill:#faebd7;fill-opacity:1;stroke:none" />
            <path
               inkscape:connector-curvature="0"
               d="m 279.156,205.889 c -3.871,-1.75 -8.553,-2.454 -11.273,-6.056 0.321,1.857 0.988,3.712 1.931,5.343 1.659,2.867 4.4,4.4 7.58,5.092 0.826,0.181 1.671,0.257 2.513,0.318 0.848,0.061 1.701,0.101 2.542,0.214 0.787,0.104 1.551,0.229 2.25,0.643 0.422,0.248 0.826,0.529 1.217,0.826 -10e-4,0.001 -1.901,-4.183 -6.76,-6.38 z"
               id="path4710"
               style="fill:#faebd7;fill-opacity:1;stroke:none" />
            <path
               inkscape:connector-curvature="0"
               d="m 65.436,160.271 c 3.825,3.124 7.007,7.344 9.088,11.824 1.857,-8.127 -0.551,-17.393 -7.065,-22.797 -4.48,-3.715 -9.752,-6.028 -14.896,-8.65 -4.094,-2.087 -8.372,-4.783 -10.728,-8.889 1.041,5.08 2.91,10.578 6.294,14.575 4.862,5.742 11.56,9.243 17.307,13.937 z"
               id="path4712"
               style="fill:#faebd7;fill-opacity:1;stroke:none" />
            <path
               inkscape:connector-curvature="0"
               d="m 63.643,160.788 c -6.94,-5.851 -16.154,-10.021 -19.648,-19.009 -0.422,4.005 -0.131,8.207 0.857,12.108 1.738,6.86 6.481,11.606 12.616,14.881 1.594,0.851 3.284,1.502 4.979,2.117 1.707,0.622 3.436,1.197 5.104,1.919 1.558,0.676 3.057,1.374 4.25,2.628 0.722,0.756 1.393,1.57 2.02,2.405 0,0.001 -1.469,-9.705 -10.178,-17.049 z"
               id="path4714"
               style="fill:#faebd7;fill-opacity:1;stroke:none" />
            <path
               inkscape:connector-curvature="0"
               d="m 442.024,41.206 c 1.604,11.129 10.428,20.288 20.928,23.822 -3.633,-5.468 -6.207,-12.004 -7.09,-18.504 -1.334,-9.768 -0.65,-19.789 -3.783,-29.278 C 449.897,10.637 444.966,4.7 439.931,0 c 3.018,5.518 3.104,12.237 2.629,18.324 -0.596,7.653 -1.635,15.226 -0.536,22.882 z"
               id="path4716"
               style="fill:#faebd7;fill-opacity:1;stroke:none" />
            <path
               inkscape:connector-curvature="0"
               d="m 469.962,50.505 c 0.477,-2.347 0.912,-4.715 1.053,-7.111 0.547,-9.223 -1.535,-17.892 -8.104,-24.621 -3.732,-3.825 -8.291,-7.069 -13.123,-9.373 7.76,10.196 6.092,23.525 7.906,35.45 2.277,14.963 12.256,23.36 12.256,23.36 -0.514,-1.291 -0.967,-2.616 -1.326,-3.957 -0.59,-2.218 -0.342,-4.403 -0.027,-6.637 0.338,-2.386 0.884,-4.745 1.365,-7.111 z"
               id="path4718"
               style="fill:#faebd7;fill-opacity:1;stroke:none" />
            <path
               inkscape:connector-curvature="0"
               d="m 101.688,271.636 c 7.491,1.658 14.85,3.739 22.586,3.715 11.246,-0.036 21.542,-7.503 26.502,-17.408 -5.921,2.836 -12.751,4.474 -19.309,4.446 -9.859,-0.04 -19.688,-2.111 -29.52,-0.331 -6.849,1.242 -13.412,5.3 -18.77,9.63 5.883,-2.221 12.547,-1.371 18.511,-0.052 z"
               id="path4720"
               style="fill:#faebd7;fill-opacity:1;stroke:none" />
            <path
               inkscape:connector-curvature="0"
               d="m 130.063,260.342 c 15.135,-0.171 24.838,-8.883 24.838,-8.883 -1.35,0.33 -2.727,0.593 -4.104,0.762 -2.28,0.278 -4.409,-0.272 -6.576,-0.896 -2.32,-0.667 -4.581,-1.539 -6.854,-2.344 -2.258,-0.798 -4.541,-1.557 -6.895,-2.032 -9.057,-1.827 -17.931,-0.967 -25.508,4.599 -4.309,3.164 -8.155,7.228 -11.108,11.692 11.177,-6.267 24.145,-2.761 36.207,-2.898 z"
               id="path4722"
               style="fill:#faebd7;fill-opacity:1;stroke:none" />
            <path
               inkscape:connector-curvature="0"
               d="m 374.866,192.223 c 5.479,-5.373 11.236,-10.404 15.436,-16.9 6.104,-9.443 5.465,-22.148 -0.133,-31.71 -0.854,6.511 -3.207,13.127 -6.809,18.608 -5.412,8.24 -12.508,15.349 -16.379,24.56 -2.697,6.417 -2.877,14.131 -2.17,20.982 1.346,-6.139 5.696,-11.262 10.055,-15.54 z"
               id="path4724"
               style="fill:#faebd7;fill-opacity:1;stroke:none" />
            <path
               inkscape:connector-curvature="0"
               d="m 386.987,136.617 c -0.459,1.31 -0.988,2.607 -1.602,3.856 -1.012,2.062 -2.631,3.546 -4.338,5.024 -1.826,1.582 -3.789,2.999 -5.703,4.464 -1.904,1.457 -3.787,2.956 -5.467,4.67 -6.471,6.594 -10.594,14.498 -10.061,23.886 0.303,5.336 1.607,10.777 3.74,15.686 0.846,-12.785 10.861,-21.741 17.324,-31.922 8.115,-12.779 6.107,-25.664 6.107,-25.664 z"
               id="path4726"
               style="fill:#faebd7;fill-opacity:1;stroke:none" />
            <path
               inkscape:connector-curvature="0"
               d="m 29.451,213.154 c 3.996,0.193 8.1,1.411 11.616,3.329 -2.702,-6.19 -8.733,-11.068 -15.579,-11.454 -4.709,-0.263 -9.256,0.768 -13.871,1.536 -3.675,0.612 -7.76,0.915 -11.27,-0.627 3.125,2.809 6.989,5.49 11.12,6.466 5.927,1.402 11.98,0.456 17.984,0.75 z"
               id="path4728"
               style="fill:#faebd7;fill-opacity:1;stroke:none" />
            <path
               inkscape:connector-curvature="0"
               d="m 12.963,218.903 c 4.434,3.635 9.81,4.443 15.386,3.62 1.447,-0.214 2.861,-0.603 4.262,-1.016 1.411,-0.416 2.815,-0.875 4.25,-1.206 1.34,-0.309 2.653,-0.575 4.033,-0.333 0.835,0.147 1.665,0.352 2.476,0.597 0,0 -5.627,-5.618 -14.841,-6.208 -7.341,-0.471 -15.352,1.245 -21.955,-2.929 1.658,2.812 3.871,5.41 6.389,7.475 z"
               id="path4730"
               style="fill:#faebd7;fill-opacity:1;stroke:none" />
            <path
               inkscape:connector-curvature="0"
               d="m 528.005,91.023 c -4.188,1.539 -7.883,4.826 -10.791,8.152 3.471,-2.053 7.773,-2.249 11.684,-2.075 4.914,0.22 9.789,0.722 14.67,-0.147 7.096,-1.264 12.771,-7.114 14.812,-13.917 -3.424,2.445 -7.555,4.231 -11.701,4.938 -6.231,1.063 -12.662,0.839 -18.674,3.049 z"
               id="path4732"
               style="fill:#faebd7;fill-opacity:1;stroke:none" />
            <path
               inkscape:connector-curvature="0"
               d="m 553.513,79.582 c -1.539,-0.165 -3.064,-0.465 -4.588,-0.725 -1.514,-0.257 -3.037,-0.483 -4.578,-0.523 -5.92,-0.153 -11.428,1.368 -15.596,5.719 -2.371,2.473 -4.352,5.462 -5.723,8.608 6.365,-5.19 14.939,-4.407 22.541,-5.823 9.537,-1.778 14.703,-8.351 14.703,-8.351 -0.818,0.358 -1.656,0.676 -2.506,0.933 -1.412,0.428 -2.816,0.315 -4.253,0.162 z"
               id="path4734"
               style="fill:#faebd7;fill-opacity:1;stroke:none" />
            <path
               inkscape:connector-curvature="0"
               d="m 351.735,260.373 c -2.041,-6.802 -7.717,-12.653 -14.812,-13.917 -4.881,-0.869 -9.756,-0.367 -14.67,-0.147 -3.91,0.175 -8.211,-0.024 -11.684,-2.075 2.904,3.327 6.602,6.613 10.789,8.152 6.014,2.209 12.445,1.986 18.676,3.051 4.143,0.704 8.276,2.494 11.701,4.936 z"
               id="path4736"
               style="fill:#faebd7;fill-opacity:1;stroke:none" />
            <path
               inkscape:connector-curvature="0"
               d="m 337.702,265.076 c 1.537,-0.04 3.064,-0.266 4.578,-0.523 1.523,-0.257 3.049,-0.557 4.588,-0.725 1.438,-0.153 2.842,-0.266 4.25,0.159 0.85,0.257 1.691,0.575 2.506,0.934 0,0 -5.166,-6.57 -14.703,-8.351 -7.602,-1.417 -16.176,-0.636 -22.541,-5.823 1.371,3.146 3.355,6.132 5.723,8.608 4.173,4.353 9.681,5.874 15.599,5.721 z"
               id="path4738"
               style="fill:#faebd7;fill-opacity:1;stroke:none" />
            <path
               inkscape:connector-curvature="0"
               d="m 305.595,54.282 c 4.143,0.707 8.273,2.494 11.701,4.938 -2.041,-6.802 -7.717,-12.653 -14.814,-13.917 -4.881,-0.869 -9.754,-0.368 -14.67,-0.147 -3.91,0.174 -8.209,-0.024 -11.682,-2.075 2.904,3.326 6.6,6.613 10.79,8.152 6.013,2.207 12.444,1.984 18.675,3.049 z"
               id="path4740"
               style="fill:#faebd7;fill-opacity:1;stroke:none" />
            <path
               inkscape:connector-curvature="0"
               d="m 304.483,55.42 c -7.602,-1.417 -16.176,-0.637 -22.539,-5.823 1.369,3.146 3.354,6.132 5.721,8.608 4.172,4.351 9.68,5.872 15.598,5.719 1.535,-0.04 3.062,-0.266 4.578,-0.523 1.523,-0.257 3.047,-0.557 4.586,-0.725 1.439,-0.153 2.844,-0.267 4.25,0.159 0.852,0.257 1.693,0.575 2.506,0.933 0.004,0 -5.162,-6.57 -14.7,-8.348 z"
               id="path4742"
               style="fill:#faebd7;fill-opacity:1;stroke:none" />
            <path
               inkscape:connector-curvature="0"
               d="m 257.671,327.344 c -4.535,-2.004 -9.388,-2.678 -14.213,-3.633 -3.84,-0.758 -7.972,-1.977 -10.854,-4.795 2.032,3.92 4.838,7.994 8.541,10.484 5.315,3.576 11.616,4.889 17.415,7.402 3.858,1.67 7.445,4.391 10.189,7.578 -0.365,-7.089 -4.486,-14.12 -11.078,-17.036 z"
               id="path4744"
               style="fill:#faebd7;fill-opacity:1;stroke:none" />
            <path
               inkscape:connector-curvature="0"
               d="m 257.209,337.645 c -7.044,-3.186 -15.56,-4.465 -20.508,-11.018 0.584,3.383 1.796,6.758 3.513,9.723 3.014,5.217 8.005,8.004 13.791,9.262 1.502,0.328 3.039,0.469 4.572,0.582 1.542,0.113 3.094,0.184 4.627,0.389 1.432,0.193 2.824,0.416 4.091,1.166 0.765,0.453 1.505,0.961 2.212,1.502 -0.003,-10e-4 -3.457,-7.61 -12.298,-11.606 z"
               id="path4746"
               style="fill:#faebd7;fill-opacity:1;stroke:none" />
            <path
               inkscape:connector-curvature="0"
               d="m 202.286,164.561 c 3.972,3.244 7.276,7.625 9.44,12.283 1.931,-8.442 -0.572,-18.066 -7.338,-23.678 -4.654,-3.859 -10.128,-6.261 -15.475,-8.984 -4.253,-2.169 -8.696,-4.966 -11.145,-9.232 1.081,5.275 3.023,10.985 6.54,15.141 5.049,5.957 12.007,9.592 17.978,14.47 z"
               id="path4748"
               style="fill:#faebd7;fill-opacity:1;stroke:none" />
            <path
               inkscape:connector-curvature="0"
               d="m 194.011,173.383 c 1.655,0.884 3.409,1.561 5.171,2.2 1.772,0.646 3.571,1.242 5.3,1.992 1.619,0.701 3.176,1.429 4.413,2.729 0.75,0.786 1.447,1.631 2.099,2.5 0,0 -1.524,-10.08 -10.572,-17.705 -7.209,-6.077 -16.778,-10.41 -20.407,-19.743 -0.438,4.162 -0.134,8.525 0.891,12.577 1.804,7.124 6.731,12.05 13.105,15.45 z"
               id="path4750"
               style="fill:#faebd7;fill-opacity:1;stroke:none" />
            <path
               inkscape:connector-curvature="0"
               d="m 185.581,290.898 c 5.857,1.295 11.609,2.924 17.656,2.904 8.791,-0.031 16.839,-5.865 20.719,-13.611 -4.63,2.218 -9.967,3.498 -15.095,3.476 -7.708,-0.029 -15.392,-1.648 -23.079,-0.256 -5.355,0.969 -10.486,4.143 -14.672,7.527 4.599,-1.735 9.807,-1.067 14.471,-0.04 z"
               id="path4752"
               style="fill:#faebd7;fill-opacity:1;stroke:none" />
            <path
               inkscape:connector-curvature="0"
               d="m 207.763,282.07 c 11.833,-0.135 19.419,-6.946 19.419,-6.946 -1.056,0.258 -2.13,0.466 -3.207,0.594 -1.784,0.218 -3.445,-0.211 -5.141,-0.7 -1.814,-0.521 -3.58,-1.203 -5.358,-1.833 -1.766,-0.625 -3.55,-1.218 -5.389,-1.588 -7.081,-1.429 -14.018,-0.756 -19.942,3.595 -3.366,2.476 -6.374,5.649 -8.684,9.14 8.736,-4.896 18.874,-2.154 28.302,-2.262 z"
               id="path4754"
               style="fill:#faebd7;fill-opacity:1;stroke:none" />
            <path
               inkscape:connector-curvature="0"
               d="m 496.251,43.223 c -2.568,4.798 -3.27,10.79 -3.219,16.175 1.496,-4.685 5.254,-8.354 8.959,-11.365 4.654,-3.786 9.504,-7.28 13.244,-12.029 5.438,-6.907 5.865,-16.839 2.209,-24.691 -1.139,5.006 -3.451,9.985 -6.656,13.987 -4.812,6.019 -10.853,11.034 -14.537,17.923 z"
               id="path4756"
               style="fill:#faebd7;fill-opacity:1;stroke:none" />
            <path
               inkscape:connector-curvature="0"
               d="m 491.278,36.267 c -0.154,4.177 0.465,8.504 1.766,12.482 1.592,-9.89 10.037,-16.129 15.811,-23.583 7.246,-9.354 6.621,-19.529 6.621,-19.529 -0.451,0.985 -0.959,1.958 -1.525,2.882 -0.939,1.533 -2.309,2.567 -3.742,3.593 -1.537,1.099 -3.168,2.059 -4.766,3.06 -1.588,0.994 -3.16,2.025 -4.592,3.234 -5.522,4.664 -9.303,10.514 -9.573,17.861 z"
               id="path4758"
               style="fill:#faebd7;fill-opacity:1;stroke:none" />
            <path
               inkscape:connector-curvature="0"
               d="m 266.631,126.375 c -1.76,-5.734 -3.176,-11.542 -6.172,-16.793 -4.357,-7.635 -13.403,-11.763 -22.053,-11.325 4.21,2.935 7.956,6.949 10.462,11.423 3.77,6.723 6.148,14.205 11.148,20.208 3.482,4.18 8.77,7.084 13.779,9.061 -3.776,-3.149 -5.765,-8.011 -7.164,-12.574 z"
               id="path4760"
               style="fill:#faebd7;fill-opacity:1;stroke:none" />
            <path
               inkscape:connector-curvature="0"
               d="m 263.932,134.937 c -8.565,-5.19 -11.178,-15.361 -15.915,-23.516 -5.949,-10.229 -15.612,-13.476 -15.612,-13.476 0.744,0.789 1.454,1.625 2.1,2.497 1.068,1.444 1.511,3.103 1.924,4.819 0.441,1.836 0.716,3.708 1.047,5.566 0.327,1.845 0.688,3.69 1.273,5.475 2.246,6.863 6.249,12.57 12.953,15.582 3.812,1.71 8.056,2.762 12.23,3.053 z"
               id="path4762"
               style="fill:#faebd7;fill-opacity:1;stroke:none" />
            <path
               inkscape:connector-curvature="0"
               d="m 491.683,126.36 c -6.154,-0.551 -12.727,1.377 -18.33,3.822 5.561,-0.517 11.062,1.781 15.857,4.312 6.021,3.183 11.83,6.695 18.455,8.495 9.633,2.613 20.201,-1.353 26.781,-8.663 -5.734,1.034 -11.965,0.829 -17.574,-0.738 -8.43,-2.354 -16.355,-6.439 -25.189,-7.228 z"
               id="path4764"
               style="fill:#faebd7;fill-opacity:1;stroke:none" />
            <path
               inkscape:connector-curvature="0"
               d="m 530.392,127.122 c -1.83,-1.117 -3.559,-2.396 -5.316,-3.62 -1.744,-1.215 -3.521,-2.402 -5.422,-3.363 -7.322,-3.696 -15.119,-5.049 -22.914,-2.068 -4.43,1.695 -8.68,4.266 -12.258,7.393 11.041,-2.729 21.312,3.323 31.668,6.043 12.996,3.415 23.352,-1.756 23.352,-1.756 -1.234,-0.037 -2.473,-0.135 -3.691,-0.315 -2.017,-0.301 -3.71,-1.27 -5.419,-2.314 z"
               id="path4766"
               style="fill:#faebd7;fill-opacity:1;stroke:none" />
            <path
               inkscape:connector-curvature="0"
               d="m 334.905,59.22 c 2.715,-1.604 6.074,-1.759 9.131,-1.622 3.842,0.171 7.654,0.566 11.469,-0.116 5.549,-0.989 9.986,-5.563 11.58,-10.878 -2.678,1.913 -5.906,3.308 -9.146,3.862 -4.869,0.832 -9.898,0.658 -14.6,2.384 -3.274,1.202 -6.162,3.77 -8.434,6.37 z"
               id="path4768"
               style="fill:#faebd7;fill-opacity:1;stroke:none" />
            <path
               inkscape:connector-curvature="0"
               d="m 368.563,43.045 c -0.637,0.278 -1.295,0.529 -1.959,0.728 -1.102,0.333 -2.201,0.245 -3.324,0.125 -1.201,-0.128 -2.393,-0.364 -3.586,-0.566 -1.184,-0.199 -2.377,-0.376 -3.576,-0.41 -4.627,-0.12 -8.932,1.068 -12.195,4.471 -1.854,1.934 -3.402,4.272 -4.473,6.729 4.975,-4.058 11.68,-3.446 17.619,-4.553 7.457,-1.386 11.494,-6.524 11.494,-6.524 z"
               id="path4770"
               style="fill:#faebd7;fill-opacity:1;stroke:none" />
            <path
               inkscape:connector-curvature="0"
               d="m 534.128,57.442 c 4.699,1.729 9.727,1.555 14.598,2.384 3.242,0.551 6.469,1.949 9.146,3.862 -1.594,-5.318 -6.031,-9.89 -11.578,-10.878 -3.816,-0.679 -7.625,-0.288 -11.467,-0.116 -3.057,0.138 -6.42,-0.018 -9.131,-1.622 2.268,2.597 5.157,5.165 8.432,6.37 z"
               id="path4772"
               style="fill:#faebd7;fill-opacity:1;stroke:none" />
            <path
               inkscape:connector-curvature="0"
               d="m 530.237,56.164 c 1.072,2.457 2.623,4.795 4.475,6.729 3.258,3.402 7.564,4.59 12.193,4.47 1.203,-0.03 2.396,-0.208 3.578,-0.41 1.193,-0.202 2.383,-0.438 3.586,-0.566 1.123,-0.119 2.221,-0.208 3.322,0.125 0.668,0.202 1.322,0.45 1.959,0.729 0,0 -4.039,-5.138 -11.494,-6.527 -5.941,-1.108 -12.642,-0.496 -17.619,-4.55 z"
               id="path4774"
               style="fill:#faebd7;fill-opacity:1;stroke:none" />
            <path
               inkscape:connector-curvature="0"
               d="m 94.42,210.069 c -3.816,-0.679 -7.625,-0.288 -11.466,-0.113 -3.057,0.138 -6.42,-0.019 -9.131,-1.622 2.271,2.598 5.159,5.168 8.433,6.371 4.7,1.729 9.728,1.555 14.6,2.384 3.24,0.551 6.469,1.949 9.146,3.862 -1.597,-5.322 -6.034,-9.893 -11.582,-10.882 z"
               id="path4776"
               style="fill:#faebd7;fill-opacity:1;stroke:none" />
            <path
               inkscape:connector-curvature="0"
               d="m 78.365,213.423 c 1.071,2.458 2.619,4.795 4.474,6.729 3.259,3.403 7.564,4.59 12.194,4.471 1.202,-0.031 2.393,-0.208 3.577,-0.41 1.193,-0.202 2.383,-0.438 3.586,-0.566 1.123,-0.12 2.222,-0.208 3.323,0.125 0.667,0.202 1.322,0.45 1.958,0.728 0,0 -4.039,-5.138 -11.494,-6.527 -5.939,-1.104 -12.643,-0.493 -17.618,-4.55 z"
               id="path4778"
               style="fill:#faebd7;fill-opacity:1;stroke:none" />
            <path
               inkscape:connector-curvature="0"
               d="m 431.216,70.34 c 3.018,1.307 5.82,3.434 7.965,5.924 -0.283,-5.545 -3.506,-11.041 -8.658,-13.32 -3.545,-1.567 -7.338,-2.093 -11.111,-2.839 -3.002,-0.594 -6.23,-1.545 -8.486,-3.749 1.588,3.066 3.783,6.249 6.678,8.195 4.155,2.8 9.081,3.825 13.612,5.789 z"
               id="path4780"
               style="fill:#faebd7;fill-opacity:1;stroke:none" />
            <path
               inkscape:connector-curvature="0"
               d="m 427.655,77.229 c 1.174,0.254 2.373,0.367 3.574,0.453 1.205,0.089 2.416,0.144 3.615,0.303 1.121,0.15 2.207,0.327 3.199,0.912 0.6,0.355 1.178,0.753 1.729,1.175 0,0 -2.699,-5.949 -9.611,-9.073 -5.508,-2.491 -12.164,-3.489 -16.031,-8.611 0.455,2.644 1.404,5.282 2.744,7.602 2.355,4.074 6.258,6.253 10.781,7.239 z"
               id="path4782"
               style="fill:#faebd7;fill-opacity:1;stroke:none" />
            <path
               inkscape:connector-curvature="0"
               d="m 416.097,205.837 c 4.158,-4.082 8.535,-7.901 11.723,-12.837 4.637,-7.173 4.15,-16.821 -0.098,-24.082 -0.648,4.945 -2.436,9.969 -5.172,14.134 -4.109,6.258 -9.5,11.656 -12.441,18.654 -2.047,4.875 -2.186,10.735 -1.648,15.937 1.022,-4.667 4.325,-8.556 7.636,-11.806 z"
               id="path4784"
               style="fill:#faebd7;fill-opacity:1;stroke:none" />
            <path
               inkscape:connector-curvature="0"
               d="m 425.304,163.603 c -0.348,0.995 -0.752,1.98 -1.215,2.929 -0.768,1.566 -2,2.692 -3.295,3.815 -1.387,1.2 -2.877,2.277 -4.332,3.391 -1.445,1.108 -2.875,2.246 -4.15,3.546 -4.914,5.009 -8.047,11.013 -7.641,18.143 0.229,4.054 1.221,8.186 2.84,11.916 0.643,-9.709 8.25,-16.512 13.16,-24.245 6.158,-9.709 4.633,-19.495 4.633,-19.495 z"
               id="path4786"
               style="fill:#faebd7;fill-opacity:1;stroke:none" />
            <path
               inkscape:connector-curvature="0"
               d="m 230.844,224.506 c -3.706,-0.661 -7.408,-0.278 -11.141,-0.11 -2.971,0.132 -6.236,-0.018 -8.874,-1.576 2.206,2.524 5.012,5.021 8.195,6.19 4.565,1.677 9.452,1.508 14.183,2.316 3.149,0.536 6.286,1.894 8.887,3.751 -1.546,-5.167 -5.861,-9.61 -11.25,-10.571 z"
               id="path4788"
               style="fill:#faebd7;fill-opacity:1;stroke:none" />
            <path
               inkscape:connector-curvature="0"
               d="m 215.245,227.765 c 1.041,2.387 2.546,4.657 4.345,6.536 3.167,3.305 7.35,4.461 11.845,4.342 1.169,-0.031 2.326,-0.202 3.476,-0.398 1.16,-0.196 2.316,-0.425 3.482,-0.551 1.092,-0.116 2.157,-0.202 3.228,0.123 0.646,0.196 1.285,0.438 1.903,0.71 0,0 -3.923,-4.991 -11.166,-6.34 -5.764,-1.074 -12.278,-0.48 -17.113,-4.422 z"
               id="path4790"
               style="fill:#faebd7;fill-opacity:1;stroke:none" />
          </g>
        </g>
        <g
           id="g4796"
           style="fill:#faebd7;fill-opacity:1;stroke:none" />
        <g
           id="g4798"
           style="fill:#faebd7;fill-opacity:1;stroke:none" />
        <g
           id="g4800"
           style="fill:#faebd7;fill-opacity:1;stroke:none" />
        <g
           id="g4802"
           style="fill:#faebd7;fill-opacity:1;stroke:none" />
        <g
           id="g4804"
           style="fill:#faebd7;fill-opacity:1;stroke:none" />
        <g
           id="g4806"
           style="fill:#faebd7;fill-opacity:1;stroke:none" />
        <g
           id="g4808"
           style="fill:#faebd7;fill-opacity:1;stroke:none" />
        <g
           id="g4810"
           style="fill:#faebd7;fill-opacity:1;stroke:none" />
        <g
           id="g4812"
           style="fill:#faebd7;fill-opacity:1;stroke:none" />
        <g
           id="g4814"
           style="fill:#faebd7;fill-opacity:1;stroke:none" />
        <g
           id="g4816"
           style="fill:#faebd7;fill-opacity:1;stroke:none" />
        <g
           id="g4818"
           style="fill:#faebd7;fill-opacity:1;stroke:none" />
        <g
           id="g4820"
           style="fill:#faebd7;fill-opacity:1;stroke:none" />
        <g
           id="g4822"
           style="fill:#faebd7;fill-opacity:1;stroke:none" />
        <g
           id="g4824"
           style="fill:#faebd7;fill-opacity:1;stroke:none" />
      </g>
      <text
         xml:space="preserve"
         style="font-style:normal;font-variant:normal;font-weight:normal;font-stretch:normal;font-size:141.57998657px;line-height:1.25;font-family:'Vladimir Script';-inkscape-font-specification:'Vladimir Script';letter-spacing:0px;word-spacing:0px;display:inline;fill:#faebd7;fill-opacity:1;stroke:none;stroke-width:3.53949976;paint-order:stroke fill markers;"
         x="-522.06451"
         y="-42.96463"
         id="text4569-4"
         transform="matrix(0.77008421,0.06685892,-0.07968767,1.2916408,0,0)"><tspan
           sodipodi:role="line"
           x="-522.06451"
           y="-42.96463"
           id="tspan4567-4"
           style="font-style:normal;font-variant:normal;font-weight:normal;font-stretch:normal;font-family:Gabriola;-inkscape-font-specification:Gabriola;stroke-width:3.53949976;fill:#faebd7;fill-opacity:1;stroke:none;"><tspan
             x="-522.06451"
             y="-42.96463"
             style="font-style:normal;font-variant:normal;font-weight:normal;font-stretch:normal;font-size:186.32003784px;font-family:Gabriola;-inkscape-font-specification:Gabriola;letter-spacing:0.97099221px;stroke-width:3.53949976;paint-order:stroke fill markers;fill:#faebd7;fill-opacity:1;stroke:none;"
             id="tspan4563-7"
             dx="0 0">H</tspan></tspan></text>
      <flowRoot
         xml:space="preserve"
         id="flowRoot89"
         style="fill:black;fill-opacity:1;stroke:none;font-family:sans-serif;font-style:normal;font-weight:normal;font-size:40px;line-height:1.25;letter-spacing:0px;word-spacing:0px"><flowRegion
           id="flowRegion91"><rect
             id="rect93"
             width="3173.8867"
             height="1474.9896"
             x="-254.69461"
             y="-145.7278" /></flowRegion><flowPara
           id="flowPara95" /></flowRoot>    </g>
  </g>
</svg>
